<?xml version="1.0" standalone="no"?><!DOCTYPE svg PUBLIC "-//W3C//DTD SVG 1.1//EN" "http://www.w3.org/Graphics/SVG/1.1/DTD/svg11.dtd"><svg t="1563679638688" class="icon" viewBox="0 0 1024 1024" version="1.1" xmlns="http://www.w3.org/2000/svg" p-id="3033" xmlns:xlink="http://www.w3.org/1999/xlink" width="32" height="32"><defs><style type="text/css"></style></defs><path d="M163.64544 1020.586667c-29.51168 0-53.609813-5.485227-73.669973-16.745814-38.27712-19.6608-66.276693-58.43968-73.22624-101.25312v-0.3584a227.969707 227.969707 0 0 1-2.153814-35.345066v-213.97504-168.157867-36.256427c-0.095573-40.99072-0.208213-83.367253 2.546347-125.149866v-0.477867c2.167467-19.746133 5.300907-42.574507 15.3088-63.525547 19.135147-42.185387 57.412267-67.925333 86.217387-82.128213 18.86208-10.707627 39.007573-18.660693 58.494293-26.313387l8.157867-3.229013 0.549546-0.21504 0.57344-0.1536c125.65504-35.167573 252.849493-70.079147 382.952107-105.73824 14.486187-3.792213 29.074773-7.89504 43.185493-11.844267 28.95872-8.12032 58.914133-16.513707 89.094827-22.72256l0.365227-0.07168 4.048213-0.55296c10.632533-1.447253 21.620053-2.952533 32.894293-2.952533 8.321707-0.088747 16.626347 0.9216 24.685227 3.003733a72.260267 72.260267 0 0 1 46.3872 35.584c9.35936 16.56832 11.373227 35.467947 13.154987 52.138667l0.085333 0.754347v0.310613c1.194667 23.92064 1.061547 48.008533 0.95232 71.359147 0 10.60864-0.105813 21.531307 0 32.293546l0.07168 11.23328h-68.8128V198.997333 162.167467 122.18368c-0.24576-16.366933-0.488107-31.81568-5.092693-46.134613-0.785067-2.525867-4.621653-3.826347-8.014507-3.863894h-2.587307c-17.319253 0-34.33472 4.089173-52.319573 8.372907l-5.2736 1.26976C545.368747 119.251627 386.11968 162.874027 228.379307 206.677333c-2.392747 0.679253-4.908373 1.358507-7.40352 2.034347a148.753067 148.753067 0 0 0-20.43904 6.529707c-4.307627 1.8432-8.625493 3.590827-12.8 5.311146-10.765653 4.41344-21.111467 8.61184-30.825814 13.8752a153.146027 153.146027 0 0 1 9.89184-0.310613H857.5488c54.29248 0 106.79296 31.645013 133.833387 80.667307 11.8784 19.78368 18.128213 43.359573 18.039466 68.181333V860.194133c0.085333 17.59232 0.180907 37.5808-5.40672 56.692054a140.561067 140.561067 0 0 1-71.68 87.866026c-19.725653 10.653013-43.281067 15.834453-71.9872 15.834454H163.64544z m-80.54784-149.333334c0.1536 9.567573 0.600747 20.619947 3.867307 30.272854l0.126293 0.180906a71.881387 71.881387 0 0 0 46.400853 46.29504h0.180907c10.765653 3.59424 22.869333 3.867307 33.406293 3.867307H865.211733c18.773333 0 36.174507-5.973333 49.03936-16.83456l0.22528-0.180907c16.827733-13.513387 26.692267-35.519147 26.385067-58.88v-0.1536c0.07168-105.332053 0.06144-212.432213 0-316.020053v-175.028907c1.194667-33.324373-24.832-66.983253-60.501333-78.318933l-0.279894-0.08192-0.259413-0.095573c-8.861013-3.314347-19.06688-3.587413-27.921067-3.587414H170.560853a122.1632 122.1632 0 0 0-18.203306 1.201494c-30.74048 5.393067-58.333867 33.25952-67.31776 67.904853-1.19808 9.222827-1.19808 18.6368-1.19808 28.586667 0 7.68 0 15.619413-0.62464 23.610026-0.09216 82.199893-0.078507 165.768533-0.06144 246.596267-0.02048 65.805653-0.006827 133.7856-0.058027 200.666453z m741.311147-175.039146a66.420053 66.420053 0 0 1-18.93376-2.740907c-28.80512-7.898453-50.14528-36.307627-49.739094-66.205013-0.300373-30.139733 21.312853-58.61376 50.3808-66.23232a64.098987 64.098987 0 0 1 18.240854-2.628267c27.32032 0 52.6336 16.360107 63.06816 40.666453 11.14112 24.18688 6.37952 54.674773-11.58144 74.267307a69.352107 69.352107 0 0 1-51.43552 22.872747z" p-id="3034" fill="#ce9216"></path></svg>